<mxfile host="Electron" modified="2024-10-04T02:15:37.294Z" agent="Mozilla/5.0 (Windows NT 10.0; Win64; x64) AppleWebKit/537.36 (KHTML, like Gecko) draw.io/21.1.2 Chrome/106.0.5249.199 Electron/21.4.3 Safari/537.36" etag="qJvZKiTgq_JyPkkh3Aps" version="21.1.2" type="device">
  <diagram name="Page-1" id="Iy99BUWeF3bMf1di-Y_d">
    <mxGraphModel dx="1434" dy="844" grid="1" gridSize="10" guides="1" tooltips="1" connect="1" arrows="1" fold="1" page="1" pageScale="1" pageWidth="850" pageHeight="1100" math="0" shadow="0">
      <root>
        <mxCell id="0" />
        <mxCell id="1" parent="0" />
        <mxCell id="nHr8U0bM6-ge3zUzoyn--1" value="" style="whiteSpace=wrap;html=1;aspect=fixed;" vertex="1" parent="1">
          <mxGeometry x="120" y="120" width="605" height="605" as="geometry" />
        </mxCell>
        <mxCell id="nHr8U0bM6-ge3zUzoyn--6" value="" style="whiteSpace=wrap;html=1;aspect=fixed;" vertex="1" parent="1">
          <mxGeometry x="216.25" y="260" width="412.5" height="412.5" as="geometry" />
        </mxCell>
        <mxCell id="nHr8U0bM6-ge3zUzoyn--2" value="&lt;font style=&quot;font-size: 16px;&quot;&gt;Tile x9&lt;/font&gt;" style="whiteSpace=wrap;html=1;aspect=fixed;" vertex="1" parent="1">
          <mxGeometry x="385" y="420" width="80" height="80" as="geometry" />
        </mxCell>
        <mxCell id="nHr8U0bM6-ge3zUzoyn--3" value="&lt;font style=&quot;font-size: 16px;&quot;&gt;Slash&lt;/font&gt;" style="whiteSpace=wrap;html=1;aspect=fixed;" vertex="1" parent="1">
          <mxGeometry x="385" y="530" width="80" height="80" as="geometry" />
        </mxCell>
        <mxCell id="nHr8U0bM6-ge3zUzoyn--4" value="&lt;font style=&quot;font-size: 16px;&quot;&gt;NewGame&lt;/font&gt;" style="whiteSpace=wrap;html=1;aspect=fixed;" vertex="1" parent="1">
          <mxGeometry x="610" y="160" width="80" height="80" as="geometry" />
        </mxCell>
        <mxCell id="nHr8U0bM6-ge3zUzoyn--7" value="&lt;font style=&quot;font-size: 16px;&quot;&gt;GameBoard&lt;/font&gt;" style="text;html=1;strokeColor=none;fillColor=none;align=center;verticalAlign=middle;whiteSpace=wrap;rounded=0;" vertex="1" parent="1">
          <mxGeometry x="395" y="310" width="60" height="30" as="geometry" />
        </mxCell>
        <mxCell id="nHr8U0bM6-ge3zUzoyn--8" value="&lt;font style=&quot;font-size: 16px;&quot;&gt;TicTacToe&lt;/font&gt;" style="text;html=1;strokeColor=none;fillColor=none;align=center;verticalAlign=middle;whiteSpace=wrap;rounded=0;" vertex="1" parent="1">
          <mxGeometry x="392.5" y="150" width="60" height="30" as="geometry" />
        </mxCell>
      </root>
    </mxGraphModel>
  </diagram>
</mxfile>
